<?xml version="1.0" encoding="utf-8"?>
<!-- Generator: Adobe Illustrator 24.0.2, SVG Export Plug-In . SVG Version: 6.00 Build 0)  -->
<svg version="1.1" id="Layer_1" xmlns="http://www.w3.org/2000/svg" xmlns:xlink="http://www.w3.org/1999/xlink" x="0px" y="0px"
	 viewBox="0 0 1024.1 1062.2" style="enable-background:new 0 0 1024.1 1062.2;" xml:space="preserve">
<style type="text/css">
	.st0{fill:none;stroke:#FFFFFF;stroke-width:60;stroke-miterlimit:10;}
</style>
<title>logo-main</title>
<polygon class="st0" points="30,42.2 514,210.2 514,390.3 989.9,282.3 993.9,874.5 514,1030.6 30,866.5 "/>
<line class="st0" x1="34" y1="346.3" x2="235.7" y2="418.3"/>
<g transform="translate(753, 630) matrix(1, -0.226, 0.041, 1, 0, 0) translate(-159.49, 63.37)"><path d="M86.22 0L60.51 0L60.51-23.92L4.46-23.92L4.46-46.77L54.09-124.59L86.22-124.59L86.22-44.62L102.28-44.62L102.28-23.92L86.22-23.92L86.22 0M58.90-96.93L26.06-44.62L60.51-44.62L60.51-96.93L58.90-96.93M206.17-22.49L206.17 0L116.56 0L116.56-24.45L155.83-57.12Q166-65.87 170.47-72.29Q174.93-78.72 174.93-85.86L174.93-87.64Q174.93-95.50 170.29-99.51Q165.65-103.53 157.79-103.53Q148.87-103.53 144.05-98.35Q139.23-93.18 137.27-86.04L113.88-94.96Q116.02-101.39 119.77-107.19Q123.52-112.99 129.32-117.27Q135.12-121.56 142.80-124.15Q150.48-126.73 160.47-126.73Q170.65-126.73 178.68-123.88Q186.71-121.02 192.24-116.02Q197.78-111.03 200.63-104.15Q203.49-97.28 203.49-89.25Q203.49-81.40 200.90-74.88Q198.31-68.37 193.76-62.65Q189.21-56.94 183.05-51.59Q176.89-46.23 169.93-40.88L146.19-22.49L206.17-22.49M314.52-77.29Q314.52-64.08 310.41-52.48Q306.31-40.88 299.79-30.97Q293.28-21.06 285.15-13.21Q277.03-5.35 269 0L232.05 0Q243.65-8.03 252.85-15.44Q262.04-22.85 268.91-30.26Q275.78-37.66 280.16-45.52Q284.53-53.37 286.49-62.47L284.89-63.01Q283.28-59.44 280.87-56.05Q278.46-52.66 275.16-50.07Q271.86-47.48 267.30-45.87Q262.75-44.27 256.68-44.27Q248.83-44.27 242.05-47.03Q235.26-49.80 230.35-54.89Q225.45-59.98 222.59-67.12Q219.73-74.26 219.73-83.18Q219.73-92.64 223.13-100.67Q226.52-108.71 232.67-114.51Q238.83-120.31 247.58-123.52Q256.33-126.73 267.04-126.73Q278.28-126.73 287.12-123.25Q295.95-119.77 302.02-113.26Q308.09-106.74 311.30-97.64Q314.52-88.54 314.52-77.29M267.21-64.80Q276.32-64.80 281.49-69.70Q286.67-74.61 286.67-83.89L286.67-86.39Q286.67-95.68 281.76-100.76Q276.85-105.85 267.21-105.85Q257.58-105.85 252.58-100.76Q247.58-95.68 247.58-86.39L247.58-83.89Q247.58-74.61 252.67-69.70Q257.75-64.80 267.21-64.80" fill="#FFFFFF"/></g>
</svg>
